{
	"asset":{
		"generator":"Khronos glTF Blender I/O v3.6.27",
		"version":"2.0"
	},
	"extensionsUsed":[
		"KHR_materials_specular"
	],
	"scene":0,
	"scenes":[
		{
			"name":"Scene",
			"nodes":[
				0,
				12,
				13
			]
		}
	],
	"nodes":[
		{
			"name":"model_0.glb",
			"rotation":[
				0,
				0.3859616816043854,
				0,
				0.922514796257019
			],
			"scale":[
				5,
				5,
				5
			],
			"translation":[
				0.026738928630948067,
				0.05317433550953865,
				0.12616132199764252
			]
		},
		{
			"name":"Bone.007",
			"rotation":[
				-0.029008520767092705,
				0.04814869537949562,
				0.5088340640068054,
				0.8590274453163147
			],
			"scale":[
				0.9999999403953552,
				1,
				0.9999998807907104
			],
			"translation":[
				5.21540641784668e-07,
				1.1813819408416748,
				2.384185791015625e-07
			]
		},
		{
			"children":[
				1
			],
			"name":"Bone.005",
			"rotation":[
				-0.016599535942077637,
				0.026144642382860184,
				-0.579601526260376,
				0.8143113851547241
			],
			"scale":[
				1.0000001192092896,
				1.0000001192092896,
				1.0000001192092896
			],
			"translation":[
				-2.0489096641540527e-08,
				0.8428583741188049,
				-3.129243850708008e-07
			]
		},
		{
			"name":"Bone.008",
			"rotation":[
				-0.006534793879836798,
				-0.07723886519670486,
				-0.5381531715393066,
				0.839275062084198
			],
			"scale":[
				1.0000001192092896,
				1.0000001192092896,
				1
			],
			"translation":[
				3.948807716369629e-07,
				1.2799309492111206,
				-2.384185791015625e-07
			]
		},
		{
			"children":[
				3
			],
			"name":"Bone.006",
			"rotation":[
				0.02566245198249817,
				0.10151519626379013,
				0.5799833536148071,
				0.8078709840774536
			],
			"scale":[
				1,
				1,
				1.0000001192092896
			],
			"translation":[
				-2.0489096641540527e-08,
				0.8428583741188049,
				-3.129243850708008e-07
			]
		},
		{
			"children":[
				2,
				4
			],
			"name":"Bone.004",
			"rotation":[
				-0.004278814420104027,
				0.33309346437454224,
				-0.001040099305100739,
				0.9428834915161133
			],
			"scale":[
				1,
				1.0000001192092896,
				1
			],
			"translation":[
				-1.9042612109387846e-07,
				1.4739388227462769,
				8.711867849342525e-07
			]
		},
		{
			"children":[
				5
			],
			"name":"Bone.003",
			"rotation":[
				0.39702844619750977,
				-0.004402776248753071,
				-0.002637179335579276,
				0.9177919626235962
			],
			"scale":[
				0.9999999403953552,
				0.9999999403953552,
				1
			],
			"translation":[
				8.102506399154663e-08,
				3.018674850463867,
				-2.1624146029353142e-08
			]
		},
		{
			"children":[
				6
			],
			"name":"Bone.002",
			"rotation":[
				-0.3808029890060425,
				0.0034900405444204807,
				0.0014372703153640032,
				0.9246484637260437
			],
			"scale":[
				1,
				1.0000001192092896,
				0.9999998807907104
			],
			"translation":[
				-4.9243681132793427e-08,
				3.060070753097534,
				-7.481867214664817e-08
			]
		},
		{
			"children":[
				7
			],
			"name":"Bone.001",
			"rotation":[
				0.3474610149860382,
				-0.3550370931625366,
				0.14414283633232117,
				0.8558284640312195
			],
			"scale":[
				0.9999999403953552,
				0.9999998807907104,
				1
			],
			"translation":[
				9.313225746154785e-10,
				1.6628788709640503,
				2.561137080192566e-09
			]
		},
		{
			"children":[
				8
			],
			"name":"Bone",
			"rotation":[
				0.004362179897725582,
				-0.002100571058690548,
				0.001994165824726224,
				0.9999862909317017
			],
			"scale":[
				0.9999999403953552,
				1,
				0.9999998807907104
			],
			"translation":[
				0.12288019806146622,
				-0.008798406459391117,
				0.005753206089138985
			]
		},
		{
			"name":"neutral_bone",
			"rotation":[
				-0.7071067690849304,
				0,
				0,
				0.7071067690849304
			]
		},
		{
			"mesh":0,
			"name":"objMesh",
			"skin":0
		},
		{
			"children":[
				11,
				9,
				10
			],
			"name":"Armature",
			"rotation":[
				-0.0013735453831031919,
				0.3854132294654846,
				-0.00031016330467537045,
				0.922743022441864
			],
			"translation":[
				-0.08117879927158356,
				0.23939020931720734,
				0.08016251027584076
			]
		},
		{
			"name":"Circle",
			"translation":[
				0.24021732807159424,
				12.319090843200684,
				0.23568260669708252
			]
		}
	],
	"materials":[
		{
			"extensions":{
				"KHR_materials_specular":{
					"specularColorTexture":{
						"index":0
					}
				}
			},
			"name":"Material_0",
			"pbrMetallicRoughness":{
				"baseColorTexture":{
					"index":1
				},
				"roughnessFactor":0.5
			}
		}
	],
	"meshes":[
		{
			"name":"Mesh_0",
			"primitives":[
				{
					"attributes":{
						"POSITION":0,
						"NORMAL":1,
						"TEXCOORD_0":2,
						"JOINTS_0":3,
						"WEIGHTS_0":4
					},
					"indices":5,
					"material":0
				}
			]
		}
	],
	"textures":[
		{
			"sampler":0,
			"source":0
		},
		{
			"sampler":0,
			"source":1
		}
	],
	"images":[
		{
			"bufferView":6,
			"mimeType":"image/png",
			"name":"Image"
		},
		{
			"bufferView":7,
			"mimeType":"image/png",
			"name":"Arm Base"
		}
	],
	"skins":[
		{
			"inverseBindMatrices":6,
			"joints":[
				9,
				8,
				7,
				6,
				5,
				2,
				1,
				4,
				3,
				10
			],
			"name":"Armature"
		}
	],
	"accessors":[
		{
			"bufferView":0,
			"componentType":5126,
			"count":49785,
			"max":[
				2.0260331630706787,
				10.960012435913086,
				6.250763893127441
			],
			"min":[
				-1.5988476276397705,
				0.04041379690170288,
				-1.5585383176803589
			],
			"type":"VEC3"
		},
		{
			"bufferView":1,
			"componentType":5126,
			"count":49785,
			"type":"VEC3"
		},
		{
			"bufferView":2,
			"componentType":5126,
			"count":49785,
			"type":"VEC2"
		},
		{
			"bufferView":3,
			"componentType":5121,
			"count":49785,
			"type":"VEC4"
		},
		{
			"bufferView":4,
			"componentType":5126,
			"count":49785,
			"type":"VEC4"
		},
		{
			"bufferView":5,
			"componentType":5123,
			"count":139956,
			"type":"SCALAR"
		},
		{
			"bufferView":8,
			"componentType":5126,
			"count":10,
			"type":"MAT4"
		}
	],
	"bufferViews":[
		{
			"buffer":0,
			"byteLength":597420,
			"byteOffset":0,
			"target":34962
		},
		{
			"buffer":0,
			"byteLength":597420,
			"byteOffset":597420,
			"target":34962
		},
		{
			"buffer":0,
			"byteLength":398280,
			"byteOffset":1194840,
			"target":34962
		},
		{
			"buffer":0,
			"byteLength":199140,
			"byteOffset":1593120,
			"target":34962
		},
		{
			"buffer":0,
			"byteLength":796560,
			"byteOffset":1792260,
			"target":34962
		},
		{
			"buffer":0,
			"byteLength":279912,
			"byteOffset":2588820,
			"target":34963
		},
		{
			"buffer":0,
			"byteLength":72281,
			"byteOffset":2868732
		},
		{
			"buffer":0,
			"byteLength":149733,
			"byteOffset":2941016
		},
		{
			"buffer":0,
			"byteLength":640,
			"byteOffset":3090752
		}
	],
	"samplers":[
		{
			"magFilter":9729,
			"minFilter":9987
		}
	],
	"buffers":[
		{
			"byteLength":3091392,
			"uri":"data:application/octet-stream;base64,"
		}
	]
}
